# xmcd
#
# Track frame offsets: 
#        150
#        11888
#        18465
#        64813
#        78326
#        80973
#        107674
#        118644
#        151226
#        160184
#        165765
#        185718
#        198929
#        215344
#        231665
#        242423
#
# Disc length: 3301 seconds
#
# Revision: 3
# Processed by: cddbd v1.5.2PL0 Copyright (c) Steve Scherf et al.
# Submitted via: ExactAudioCopyFreeDBPlugin 1.0
#
DISCID=ce0ce310
DTITLE=James Brown - 5 Classic Albums plus Bonus Rare and Live Tracks
DYEAR=2011
DGENRE=Soul
TTITLE0=Hot Pants
TTITLE1=Get Up (I Feel Like Being a Sex Machine)
TTITLE2=Cold Sweat
TTITLE3=Try Me
TTITLE4=Please, Please, Please
TTITLE5=Say It Loud, I'm Black and I'm Proud
TTITLE6=Super Bad
TTITLE7=Medley:  Get on the Good Foot - Soul Power - Make it Funky
TTITLE8=Cold Sweat
TTITLE9=Papa's Got a Brand New Bag
TTITLE10=Payback
TTITLE11=Damn Right, I Am Somebody
TTITLE12=Papa Don't Take No Mess
TTITLE13=My Thang
TTITLE14=Hell
TTITLE15=I Got You (I Feel Good)
EXTD=
EXTT0=
EXTT1=
EXTT2=
EXTT3=
EXTT4=
EXTT5=
EXTT6=
EXTT7=
EXTT8=
EXTT9=
EXTT10=
EXTT11=
EXTT12=
EXTT13=
EXTT14=
EXTT15=
PLAYORDER=
